<?xml version="1.0" encoding="UTF-8" standalone="no"?>
<svg
   viewBox="0 0 793.70079 1122.5197"
   version="1.1"
   id="svg454"
   sodipodi:docname="SpaceX_logo_black.svg"
   width="210mm"
   height="297mm"
   inkscape:version="1.2.2 (b0a8486, 2022-12-01)"
   xmlns:inkscape="http://www.inkscape.org/namespaces/inkscape"
   xmlns:sodipodi="http://sodipodi.sourceforge.net/DTD/sodipodi-0.dtd"
   xmlns="http://www.w3.org/2000/svg"
   xmlns:svg="http://www.w3.org/2000/svg">
  <defs
     id="defs458" />
  <sodipodi:namedview
     id="namedview456"
     pagecolor="#ffffff"
     bordercolor="#666666"
     borderopacity="1.0"
     inkscape:showpageshadow="2"
     inkscape:pageopacity="0.0"
     inkscape:pagecheckerboard="0"
     inkscape:deskcolor="#d1d1d1"
     showgrid="false"
     inkscape:zoom="0.678125"
     inkscape:cx="687.18894"
     inkscape:cy="515.3917"
     inkscape:window-width="2556"
     inkscape:window-height="1395"
     inkscape:window-x="2560"
     inkscape:window-y="1098"
     inkscape:window-maximized="1"
     inkscape:current-layer="svg454"
     inkscape:document-units="mm" />
  <g
     id="g640"
     transform="matrix(2.0615182,0,0,2.0615182,41.847995,40.10663)"
     style="stroke-width:0.48508">
    <g
       class="letter_s"
       id="g426"
       transform="translate(-1.5,-18.5)"
       style="stroke-width:0.48508">
      <path
         d="M 37.5,30.5 H 10.9 V 23.9 H 45.2 C 44.3,21.1 41.4,18.5 36.3,18.5 H 11.4 c -5.7,0 -9,2.1 -9,6.7 v 4.9 c 0,4 3.4,6.3 8.4,6.3 h 26.9 v 7 H 1.5 c 0.9,3.8 3.8,5.8 9,5.8 h 27.1 c 5.7,0 8.5,-2.2 8.5,-6.9 v -4.9 c 0,-4.3 -3.3,-6.6 -8.6,-6.9 z"
         id="path424"
         style="stroke-width:0.48508" />
    </g>
    <g
       class="letter_p"
       id="g430"
       transform="translate(-59,22.727644)"
       style="stroke-width:0.48508">
      <path
         d="M 91.8,18.6 H 59 v 30.7 h 9.3 V 37.5 h 24.2 c 6.7,0 10.4,-2.3 10.4,-7.7 v -3.4 c -0.1,-5 -4.3,-7.8 -11.1,-7.8 z m 3,9.8 c 0,2.2 -0.4,3.4 -4,3.4 H 68.3 l 0.1,-8 h 22 c 4,0 4.5,1.2 4.5,3.3 v 1.3 z"
         id="path428"
         style="stroke-width:0.48508" />
    </g>
    <g
       class="letter_a"
       id="g434"
       transform="translate(-109.1,65.355288)"
       style="stroke-width:0.48508">
      <polygon
         points="124.3,24.2 133.8,37.3 114,37.3 109.1,42.5 137.7,42.5 142.6,49.3 153.6,49.3 129.9,17.3 "
         id="polygon432"
         style="stroke-width:0.48508" />
    </g>
    <g
       class="letter_c"
       id="g438"
       transform="translate(-162,106.78293)"
       style="stroke-width:0.48508">
      <path
         d="m 171.4,23.9 h 34.8 c -0.9,-3.6 -4.4,-5.4 -9.4,-5.4 h -26 c -4.5,0 -8.8,1.8 -8.8,6.7 v 17.2 c 0,4.9 4.3,6.7 8.8,6.7 h 26.3 c 6,0 8.1,-1.7 9.1,-5.8 h -34.8 z"
         id="path436"
         style="stroke-width:0.48508" />
    </g>
    <g
       class="letter_e"
       id="g444"
       transform="translate(-218.9,147.91058)"
       style="stroke-width:0.48508">
      <polygon
         points="228.3,34.1 247,34.1 247,28.9 218.9,28.9 218.9,49.3 260.4,49.3 260.4,43.5 228.3,43.5 "
         id="polygon440"
         style="stroke-width:0.48508" />
      <rect
         width="41.900002"
         height="5.4000001"
         x="219.89999"
         y="18.6"
         id="rect442"
         style="stroke-width:0.48508" />
    </g>
    <g
       id="g622"
       transform="translate(-272,189.13822)"
       style="stroke-width:0.48508">
      <g
         class="letter_x"
         id="g448"
         style="stroke-width:0.48508">
        <path
           d="M 287.6,18.6 H 273 l 17.2,12.6 c 2.5,-1.7 5.4,-3.5 8,-5 z m 21.2,15.7 c -2.5,1.7 -5,3.6 -7.4,5.4 l 13,9.5 h 14.7 z"
           id="path446"
           style="stroke-width:0.48508" />
      </g>
      <g
         class="letter_swoosh"
         id="g452"
         style="stroke-width:0.48508">
        <path
           d="M 399,0.7 C 319,5.3 282,39.5 273.7,47.6 l -1.7,1.6 h 14.8 C 326.8,9.1 384.3,2 399,0.7 Z"
           id="path450"
           style="stroke-width:0.48508" />
      </g>
    </g>
  </g>
</svg>
