  0
SECTION
  2
HEADER
  9
$ACADVER
  1
AC1014
  9
$HANDSEED
  5
FFFF
  9
$INSUNITS
 70
     4
  9
$MEASUREMENT
 70
     1
  0
ENDSEC
  0
SECTION
  2
TABLES
  0
TABLE
  2
VPORT
  5
8
330
0
100
AcDbSymbolTable
 70
     4
  0
VPORT
  5
2E
330
8
100
AcDbSymbolTableRecord
100
AcDbViewportTableRecord
  2
*ACTIVE
 70
     0
 10
0.0
 20
0.0
 11
1.0
 21
1.0
 12
210.0
 22
148.5
 13
0.0
 23
0.0
 14
10.0
 24
10.0
 15
10.0
 25
10.0
 16
0.0
 26
0.0
 36
1.0
 17
0.0
 27
0.0
 37
0.0
 40
341.0
 41
1.24
 42
50.0
 43
0.0
 44
0.0
 50
0.0
 51
0.0
 71
     0
 72
   100
 73
     1
 74
     3
 75
     0
 76
     0
 77
     0
 78
     0
  0
ENDTAB
  0
TABLE
  2
LTYPE
  5
5
330
0
100
AcDbSymbolTable
 70
     1
  0
LTYPE
  5
14
330
5
100
AcDbSymbolTableRecord
100
AcDbLinetypeTableRecord
  2
BYBLOCK
 70
     0
  3

 72
    65
 73
     0
 40
0.0
  0
LTYPE
  5
15
330
5
100
AcDbSymbolTableRecord
100
AcDbLinetypeTableRecord
  2
BYLAYER
 70
     0
  3

 72
    65
 73
     0
 40
0.0
  0
LTYPE
  5
16
330
5
100
AcDbSymbolTableRecord
100
AcDbLinetypeTableRecord
  2
CONTINUOUS
 70
     0
  3
Solid line
 72
    65
 73
     0
 40
0.0
  0
ENDTAB
  0
TABLE
  2
LAYER
  5
2
100
AcDbSymbolTable
 70
2
  0
LAYER
  5
50
100
AcDbSymbolTableRecord
100
AcDbLayerTableRecord
  2
0
 70
0
  6
CONTINUOUS
  0
LAYER
  5
51
100
AcDbSymbolTableRecord
100
AcDbLayerTableRecord
  2
cutout
 70
0
  6
CONTINUOUS
  0
ENDTAB
  0
TABLE
  2
STYLE
  5
3
330
0
100
AcDbSymbolTable
 70
     1
  0
STYLE
  5
11
330
3
100
AcDbSymbolTableRecord
100
AcDbTextStyleTableRecord
  2
STANDARD
 70
     0
 40
0.0
 41
1.0
 50
0.0
 71
     0
 42
2.5
  3
txt
  4

  0
ENDTAB
  0
TABLE
  2
VIEW
  5
6
330
0
100
AcDbSymbolTable
 70
     0
  0
ENDTAB
  0
TABLE
  2
UCS
  5
7
330
0
100
AcDbSymbolTable
 70
     0
  0
ENDTAB
  0
TABLE
  2
APPID
  5
9
330
0
100
AcDbSymbolTable
 70
     2
  0
APPID
  5
12
330
9
100
AcDbSymbolTableRecord
100
AcDbRegAppTableRecord
  2
ACAD
 70
     0
  0
ENDTAB
  0
TABLE
  2
DIMSTYLE
  5
A
330
0
100
AcDbSymbolTable
 70
     1
  0
DIMSTYLE
105
27
330
A
100
AcDbSymbolTableRecord
100
AcDbDimStyleTableRecord
  2
ISO-25
 70
     0
  3

  4

  5

  6

  7

 40
1.0
 41
2.5
 42
0.625
 43
3.75
 44
1.25
 45
0.0
 46
0.0
 47
0.0
 48
0.0
140
2.5
141
2.5
142
0.0
143
0.03937007874016
144
1.0
145
0.0
146
1.0
147
0.625
 71
     0
 72
     0
 73
     0
 74
     0
 75
     0
 76
     0
 77
     1
 78
     8
170
     0
171
     3
172
     1
173
     0
174
     0
175
     0
176
     0
177
     0
178
     0
270
     2
271
     2
272
     2
273
     2
274
     3
340
11
275
     0
280
     0
281
     0
282
     0
283
     0
284
     8
285
     0
286
     0
287
     3
288
     0
  0
ENDTAB
  0
TABLE
  2
BLOCK_RECORD
  5
1
330
0
100
AcDbSymbolTable
 70
     1
  0
BLOCK_RECORD
  5
1F
330
1
100
AcDbSymbolTableRecord
100
AcDbBlockTableRecord
  2
*MODEL_SPACE
  0
BLOCK_RECORD
  5
1B
330
1
100
AcDbSymbolTableRecord
100
AcDbBlockTableRecord
  2
*PAPER_SPACE
  0
ENDTAB
  0
ENDSEC
  0
SECTION
  2
BLOCKS
  0
BLOCK
  5
20
330
1F
100
AcDbEntity
  8
0
100
AcDbBlockBegin
  2
*MODEL_SPACE
 70
     0
 10
0.0
 20
0.0
 30
0.0
  3
*MODEL_SPACE
  1

  0
ENDBLK
  5
21
330
1F
100
AcDbEntity
  8
0
100
AcDbBlockEnd
  0
BLOCK
  5
1C
330
1B
100
AcDbEntity
 67
     1
  8
0
100
AcDbBlockBegin
  2
*PAPER_SPACE
  1

  0
ENDBLK
  5
1D
330
1B
100
AcDbEntity
 67
     1
  8
0
100
AcDbBlockEnd
  0
ENDSEC
  0
SECTION
  2
ENTITIES
  0
SPLINE
  5
100
100
AcDbEntity
  8
cutout
 62
7
100
AcDbSpline
 70
8
 71
3
 72
8
 73
4
 74
0
 40
0
 40
0
 40
0
 40
0
 40
1
 40
1
 40
1
 40
1
 10
45.140147
 20
165.147380
 30
0.0
 10
41.706586
 20
168.075635
 30
0.0
 10
40.609589
 20
169.091661
 30
0.0
 10
40.609589
 20
169.091661
 30
0.0
  0
SPLINE
  5
101
100
AcDbEntity
  8
cutout
 62
7
100
AcDbSpline
 70
8
 71
3
 72
8
 73
4
 74
0
 40
0
 40
0
 40
0
 40
0
 40
1
 40
1
 40
1
 40
1
 10
40.609589
 20
169.091661
 30
0.0
 10
40.609589
 20
169.091661
 30
0.0
 10
34.707772
 20
171.392721
 30
0.0
 10
34.754614
 20
175.393634
 30
0.0
  0
SPLINE
  5
102
100
AcDbEntity
  8
cutout
 62
7
100
AcDbSpline
 70
8
 71
3
 72
8
 73
4
 74
0
 40
0
 40
0
 40
0
 40
0
 40
1
 40
1
 40
1
 40
1
 10
34.754614
 20
175.393634
 30
0.0
 10
34.799834
 20
179.256193
 30
0.0
 10
36.111355
 20
180.512149
 30
0.0
 10
36.111355
 20
180.512149
 30
0.0
  0
SPLINE
  5
103
100
AcDbEntity
  8
cutout
 62
7
100
AcDbSpline
 70
8
 71
3
 72
8
 73
4
 74
0
 40
0
 40
0
 40
0
 40
0
 40
1
 40
1
 40
1
 40
1
 10
36.111355
 20
180.512149
 30
0.0
 10
36.111355
 20
180.512149
 30
0.0
 10
31.622214
 20
194.930497
 30
0.0
 10
38.612927
 20
206.251147
 30
0.0
  0
SPLINE
  5
104
100
AcDbEntity
  8
cutout
 62
7
100
AcDbSpline
 70
8
 71
3
 72
8
 73
4
 74
0
 40
0
 40
0
 40
0
 40
0
 40
1
 40
1
 40
1
 40
1
 10
38.612927
 20
206.251147
 30
0.0
 10
46.805464
 20
219.518014
 30
0.0
 10
58.851903
 20
220.339715
 30
0.0
 10
67.904252
 20
220.068220
 30
0.0
  0
SPLINE
  5
105
100
AcDbEntity
  8
cutout
 62
7
100
AcDbSpline
 70
8
 71
3
 72
8
 73
4
 74
0
 40
0
 40
0
 40
0
 40
0
 40
1
 40
1
 40
1
 40
1
 10
67.904252
 20
220.068220
 30
0.0
 10
77.003633
 20
219.795316
 30
0.0
 10
82.913234
 20
215.398169
 30
0.0
 10
82.913234
 20
215.398169
 30
0.0
  0
SPLINE
  5
106
100
AcDbEntity
  8
cutout
 62
7
100
AcDbSpline
 70
8
 71
3
 72
8
 73
4
 74
0
 40
0
 40
0
 40
0
 40
0
 40
1
 40
1
 40
1
 40
1
 10
82.913234
 20
215.398169
 30
0.0
 10
82.913234
 20
215.398169
 30
0.0
 10
85.318540
 20
216.142349
 30
0.0
 10
86.900809
 20
215.025831
 30
0.0
  0
SPLINE
  5
107
100
AcDbEntity
  8
cutout
 62
7
100
AcDbSpline
 70
8
 71
3
 72
8
 73
4
 74
0
 40
0
 40
0
 40
0
 40
0
 40
1
 40
1
 40
1
 40
1
 10
86.900809
 20
215.025831
 30
0.0
 10
88.483078
 20
213.909316
 30
0.0
 10
93.074104
 20
208.633487
 30
0.0
 10
93.074104
 20
208.633487
 30
0.0
  0
SPLINE
  5
108
100
AcDbEntity
  8
cutout
 62
7
100
AcDbSpline
 70
8
 71
3
 72
8
 73
4
 74
0
 40
0
 40
0
 40
0
 40
0
 40
1
 40
1
 40
1
 40
1
 10
93.074104
 20
208.633487
 30
0.0
 10
95.261613
 20
208.658278
 30
0.0
 10
102.095467
 20
209.145861
 30
0.0
 10
102.801754
 20
204.813166
 30
0.0
  0
SPLINE
  5
109
100
AcDbEntity
  8
cutout
 62
7
100
AcDbSpline
 70
8
 71
3
 72
8
 73
4
 74
0
 40
0
 40
0
 40
0
 40
0
 40
1
 40
1
 40
1
 40
1
 10
102.801754
 20
204.813166
 30
0.0
 10
103.508038
 20
200.480473
 30
0.0
 10
101.852048
 20
201.502458
 30
0.0
 10
97.427421
 20
199.676312
 30
0.0
  0
SPLINE
  5
10a
100
AcDbEntity
  8
cutout
 62
7
100
AcDbSpline
 70
8
 71
3
 72
8
 73
4
 74
0
 40
0
 40
0
 40
0
 40
0
 40
1
 40
1
 40
1
 40
1
 10
97.427421
 20
199.676312
 30
0.0
 10
97.427421
 20
199.676312
 30
0.0
 10
99.427475
 20
193.555706
 30
0.0
 10
99.427475
 20
187.515406
 30
0.0
  0
SPLINE
  5
10b
100
AcDbEntity
  8
cutout
 62
7
100
AcDbSpline
 70
8
 71
3
 72
8
 73
4
 74
0
 40
0
 40
0
 40
0
 40
0
 40
1
 40
1
 40
1
 40
1
 10
99.427475
 20
187.515406
 30
0.0
 10
99.427475
 20
181.475103
 30
0.0
 10
99.454378
 20
158.505349
 30
0.0
 10
99.454378
 20
158.505349
 30
0.0
  0
SPLINE
  5
10c
100
AcDbEntity
  8
cutout
 62
7
100
AcDbSpline
 70
8
 71
3
 72
8
 73
4
 74
0
 40
0
 40
0
 40
0
 40
0
 40
1
 40
1
 40
1
 40
1
 10
99.454378
 20
158.505349
 30
0.0
 10
99.454378
 20
158.505349
 30
0.0
 10
64.564723
 20
158.489897
 30
0.0
 10
57.261647
 20
158.489897
 30
0.0
  0
SPLINE
  5
10d
100
AcDbEntity
  8
cutout
 62
7
100
AcDbSpline
 70
8
 71
3
 72
8
 73
4
 74
0
 40
0
 40
0
 40
0
 40
0
 40
1
 40
1
 40
1
 40
1
 10
57.261647
 20
158.489897
 30
0.0
 10
51.634636
 20
158.687488
 30
0.0
 10
49.229952
 20
161.551560
 30
0.0
 10
45.140147
 20
165.147380
 30
0.0
  0
LWPOLYLINE
  5
10e
100
AcDbEntity
  8
cutout
 62
7
100
AcDbPolyline
 90
1
 70
1
 10
45.140147
 20
165.147380
 30
0.0
  0
ENDSEC
  0
SECTION
  2
OBJECTS
  0
DICTIONARY
  5
C
330
0
100
AcDbDictionary
  3
ACAD_GROUP
350
D
  3
ACAD_MLINESTYLE
350
17
  0
DICTIONARY
  5
D
330
C
100
AcDbDictionary
  0
DICTIONARY
  5
1A
330
C
100
AcDbDictionary
  0
DICTIONARY
  5
17
330
C
100
AcDbDictionary
  3
STANDARD
350
18
  0
DICTIONARY
  5
19
330
C
100
AcDbDictionary
  0
ENDSEC
  0
EOF
